<svg width="256" height="256" viewBox="0 0 256 256" fill="none" xmlns="http://www.w3.org/2000/svg">
<rect width="256" height="256" rx="12" fill="url(#paint0_linear_5_2)"/>
<path d="M81.6136 201V55.5455H130.761C142.125 55.5455 151.453 57.4867 158.744 61.3693C166.036 65.2045 171.434 70.4839 174.938 77.2074C178.441 83.9309 180.193 91.5777 180.193 100.148C180.193 108.718 178.441 116.317 174.938 122.946C171.434 129.575 166.06 134.783 158.815 138.571C151.571 142.312 142.314 144.182 131.045 144.182H91.2727V128.273H130.477C138.242 128.273 144.492 127.136 149.227 124.864C154.009 122.591 157.466 119.371 159.597 115.205C161.775 110.991 162.864 105.972 162.864 100.148C162.864 94.3239 161.775 89.2339 159.597 84.8778C157.419 80.5218 153.938 77.16 149.156 74.7926C144.374 72.3778 138.053 71.1705 130.193 71.1705H99.2273V201H81.6136ZM150.08 135.659L185.875 201H165.42L130.193 135.659H150.08Z" fill="white"/>
<defs>
<linearGradient id="paint0_linear_5_2" x1="0" y1="0" x2="256" y2="256" gradientUnits="userSpaceOnUse">
<stop stop-color="#292F56"/>
<stop offset="1" stop-color="#99ACFA"/>
</linearGradient>
</defs>
</svg>
